{
    "asset" : {
        "generator" : "Khronos glTF Blender I/O v1.3.48",
        "version" : "2.0"
    },
    "scene" : 0,
    "scenes" : [
        {
            "name" : "Scene",
            "nodes" : [
                0,
                1,
                2,
                3
            ]
        }
    ],
    "nodes" : [
        {
            "mesh" : 0,
            "name" : "avatar_agent_p_legs"
        },
        {
            "mesh" : 1,
            "name" : "avatar_agent_p_arms"
        },
        {
            "mesh" : 2,
            "name" : "avatar_agent_p_body"
        },
        {
            "mesh" : 3,
            "name" : "avatar_agent_p_head"
        }
    ],
    "materials" : [
        {
            "doubleSided" : true,
            "emissiveFactor" : [
                0,
                0,
                0
            ],
            "name" : "Material",
            "pbrMetallicRoughness" : {
                "baseColorTexture" : {
                    "index" : 0,
                    "texCoord" : 0
                },
                "metallicFactor" : 0,
                "roughnessFactor" : 0.5
            }
        }
    ],
    "meshes" : [
        {
            "name" : "Mesh.001",
            "primitives" : [
                {
                    "attributes" : {
                        "POSITION" : 0,
                        "NORMAL" : 1,
                        "TEXCOORD_0" : 2
                    },
                    "indices" : 3,
                    "material" : 0
                }
            ]
        },
        {
            "name" : "Mesh.002",
            "primitives" : [
                {
                    "attributes" : {
                        "POSITION" : 4,
                        "NORMAL" : 5,
                        "TEXCOORD_0" : 6
                    },
                    "indices" : 7,
                    "material" : 0
                }
            ]
        },
        {
            "name" : "Mesh.003",
            "primitives" : [
                {
                    "attributes" : {
                        "POSITION" : 8,
                        "NORMAL" : 9,
                        "TEXCOORD_0" : 10
                    },
                    "indices" : 11,
                    "material" : 0
                }
            ]
        },
        {
            "name" : "Mesh",
            "primitives" : [
                {
                    "attributes" : {
                        "POSITION" : 12,
                        "NORMAL" : 13,
                        "TEXCOORD_0" : 14
                    },
                    "indices" : 15,
                    "material" : 0
                }
            ]
        }
    ],
    "textures" : [
        {
            "sampler" : 0,
            "source" : 0
        }
    ],
    "images" : [
        {
            "bufferView" : 4,
            "mimeType" : "image/png",
            "name" : "base_color_texture"
        }
    ],
    "accessors" : [
        {
            "bufferView" : 0,
            "componentType" : 5126,
            "count" : 176,
            "max" : [
                0.2481791079044342,
                0.8376043438911438,
                0.21806736290454865
            ],
            "min" : [
                -0.24817897379398346,
                -5.465971142371018e-08,
                -0.15420126914978027
            ],
            "type" : "VEC3"
        },
        {
            "bufferView" : 1,
            "componentType" : 5126,
            "count" : 176,
            "type" : "VEC3"
        },
        {
            "bufferView" : 2,
            "componentType" : 5126,
            "count" : 176,
            "type" : "VEC2"
        },
        {
            "bufferView" : 3,
            "componentType" : 5123,
            "count" : 264,
            "type" : "SCALAR"
        },
        {
            "bufferView" : 5,
            "componentType" : 5126,
            "count" : 344,
            "max" : [
                0.5273805260658264,
                1.5307261943817139,
                0.17308713495731354
            ],
            "min" : [
                -0.5273805260658264,
                0.7551666498184204,
                -0.1681591272354126
            ],
            "type" : "VEC3"
        },
        {
            "bufferView" : 6,
            "componentType" : 5126,
            "count" : 344,
            "type" : "VEC3"
        },
        {
            "bufferView" : 7,
            "componentType" : 5126,
            "count" : 344,
            "type" : "VEC2"
        },
        {
            "bufferView" : 8,
            "componentType" : 5123,
            "count" : 528,
            "type" : "SCALAR"
        },
        {
            "bufferView" : 9,
            "componentType" : 5126,
            "count" : 546,
            "max" : [
                0.2792014479637146,
                1.5724736452102661,
                0.2534254491329193
            ],
            "min" : [
                -0.2792014479637146,
                0.7445371150970459,
                -0.1914338320493698
            ],
            "type" : "VEC3"
        },
        {
            "bufferView" : 10,
            "componentType" : 5126,
            "count" : 546,
            "type" : "VEC3"
        },
        {
            "bufferView" : 11,
            "componentType" : 5126,
            "count" : 546,
            "type" : "VEC2"
        },
        {
            "bufferView" : 12,
            "componentType" : 5123,
            "count" : 960,
            "type" : "SCALAR"
        },
        {
            "bufferView" : 13,
            "componentType" : 5126,
            "count" : 988,
            "max" : [
                0.279201477766037,
                2.0891008377075195,
                0.3121991753578186
            ],
            "min" : [
                -0.3085298538208008,
                1.4777096509933472,
                -0.24620385468006134
            ],
            "type" : "VEC3"
        },
        {
            "bufferView" : 14,
            "componentType" : 5126,
            "count" : 988,
            "type" : "VEC3"
        },
        {
            "bufferView" : 15,
            "componentType" : 5126,
            "count" : 988,
            "type" : "VEC2"
        },
        {
            "bufferView" : 16,
            "componentType" : 5123,
            "count" : 1539,
            "type" : "SCALAR"
        }
    ],
    "bufferViews" : [
        {
            "buffer" : 0,
            "byteLength" : 2112,
            "byteOffset" : 0
        },
        {
            "buffer" : 0,
            "byteLength" : 2112,
            "byteOffset" : 2112
        },
        {
            "buffer" : 0,
            "byteLength" : 1408,
            "byteOffset" : 4224
        },
        {
            "buffer" : 0,
            "byteLength" : 528,
            "byteOffset" : 5632
        },
        {
            "buffer" : 0,
            "byteLength" : 13858,
            "byteOffset" : 6160
        },
        {
            "buffer" : 0,
            "byteLength" : 4128,
            "byteOffset" : 20020
        },
        {
            "buffer" : 0,
            "byteLength" : 4128,
            "byteOffset" : 24148
        },
        {
            "buffer" : 0,
            "byteLength" : 2752,
            "byteOffset" : 28276
        },
        {
            "buffer" : 0,
            "byteLength" : 1056,
            "byteOffset" : 31028
        },
        {
            "buffer" : 0,
            "byteLength" : 6552,
            "byteOffset" : 32084
        },
        {
            "buffer" : 0,
            "byteLength" : 6552,
            "byteOffset" : 38636
        },
        {
            "buffer" : 0,
            "byteLength" : 4368,
            "byteOffset" : 45188
        },
        {
            "buffer" : 0,
            "byteLength" : 1920,
            "byteOffset" : 49556
        },
        {
            "buffer" : 0,
            "byteLength" : 11856,
            "byteOffset" : 51476
        },
        {
            "buffer" : 0,
            "byteLength" : 11856,
            "byteOffset" : 63332
        },
        {
            "buffer" : 0,
            "byteLength" : 7904,
            "byteOffset" : 75188
        },
        {
            "buffer" : 0,
            "byteLength" : 3078,
            "byteOffset" : 83092
        }
    ],
    "samplers" : [
        {
            "magFilter" : 9728,
            "minFilter" : 9984
        }
    ],
    "buffers" : [
        {
            "byteLength" : 86172,
            "uri" : "data:application/octet-stream;base64,"
        }
    ]
}
