{
    "asset" : {
        "generator" : "Khronos glTF Blender I/O v1.3.48",
        "version" : "2.0"
    },
    "scene" : 0,
    "scenes" : [
        {
            "name" : "Scene",
            "nodes" : [
                0
            ]
        }
    ],
    "nodes" : [
        {
            "mesh" : 0,
            "name" : "noob_rifle_mesh",
            "translation" : [
                1.052581787109375,
                149.9798583984375,
                82.54943084716797
            ]
        }
    ],
    "materials" : [
        {
            "doubleSided" : true,
            "emissiveFactor" : [
                0,
                0,
                0
            ],
            "name" : "lambert2",
            "pbrMetallicRoughness" : {
                "baseColorTexture" : {
                    "index" : 0,
                    "texCoord" : 0
                },
                "metallicFactor" : 0,
                "roughnessFactor" : 0
            }
        },
        {
            "doubleSided" : true,
            "emissiveFactor" : [
                0,
                0,
                0
            ],
            "name" : "player",
            "pbrMetallicRoughness" : {
                "baseColorTexture" : {
                    "index" : 1,
                    "texCoord" : 0
                },
                "metallicFactor" : 1,
                "roughnessFactor" : 0.858578622341156
            }
        }
    ],
    "meshes" : [
        {
            "name" : "Mesh.001",
            "primitives" : [
                {
                    "attributes" : {
                        "POSITION" : 0,
                        "NORMAL" : 1,
                        "TEXCOORD_0" : 2
                    },
                    "indices" : 3,
                    "material" : 0
                },
                {
                    "attributes" : {
                        "POSITION" : 4,
                        "NORMAL" : 5,
                        "TEXCOORD_0" : 6
                    },
                    "indices" : 7,
                    "material" : 1
                }
            ]
        }
    ],
    "textures" : [
        {
            "sampler" : 0,
            "source" : 0
        },
        {
            "sampler" : 1,
            "source" : 1
        }
    ],
    "images" : [
        {
            "bufferView" : 4,
            "mimeType" : "image/png",
            "name" : "noob_rifle_01_file1"
        },
        {
            "bufferView" : 9,
            "mimeType" : "image/png",
            "name" : "player"
        }
    ],
    "accessors" : [
        {
            "bufferView" : 0,
            "componentType" : 5126,
            "count" : 1854,
            "max" : [
                -1.6880542039871216,
                269.56488037109375,
                47.00709533691406
            ],
            "min" : [
                -27.592018127441406,
                223.924560546875,
                -101.7663803100586
            ],
            "type" : "VEC3"
        },
        {
            "bufferView" : 1,
            "componentType" : 5126,
            "count" : 1854,
            "type" : "VEC3"
        },
        {
            "bufferView" : 2,
            "componentType" : 5126,
            "count" : 1854,
            "type" : "VEC2"
        },
        {
            "bufferView" : 3,
            "componentType" : 5123,
            "count" : 3108,
            "type" : "SCALAR"
        },
        {
            "bufferView" : 5,
            "componentType" : 5126,
            "count" : 48,
            "max" : [
                66.39593505859375,
                264.4475402832031,
                -25.269180297851562
            ],
            "min" : [
                -42.6225471496582,
                220.81143188476562,
                -146.172607421875
            ],
            "type" : "VEC3"
        },
        {
            "bufferView" : 6,
            "componentType" : 5126,
            "count" : 48,
            "type" : "VEC3"
        },
        {
            "bufferView" : 7,
            "componentType" : 5126,
            "count" : 48,
            "type" : "VEC2"
        },
        {
            "bufferView" : 8,
            "componentType" : 5123,
            "count" : 72,
            "type" : "SCALAR"
        }
    ],
    "bufferViews" : [
        {
            "buffer" : 0,
            "byteLength" : 22248,
            "byteOffset" : 0
        },
        {
            "buffer" : 0,
            "byteLength" : 22248,
            "byteOffset" : 22248
        },
        {
            "buffer" : 0,
            "byteLength" : 14832,
            "byteOffset" : 44496
        },
        {
            "buffer" : 0,
            "byteLength" : 6216,
            "byteOffset" : 59328
        },
        {
            "buffer" : 0,
            "byteLength" : 6941,
            "byteOffset" : 65544
        },
        {
            "buffer" : 0,
            "byteLength" : 576,
            "byteOffset" : 72488
        },
        {
            "buffer" : 0,
            "byteLength" : 576,
            "byteOffset" : 73064
        },
        {
            "buffer" : 0,
            "byteLength" : 384,
            "byteOffset" : 73640
        },
        {
            "buffer" : 0,
            "byteLength" : 144,
            "byteOffset" : 74024
        },
        {
            "buffer" : 0,
            "byteLength" : 18841,
            "byteOffset" : 74168
        }
    ],
    "samplers" : [
        {
            "magFilter" : 9728,
            "minFilter" : 9984
        },
        {
            "magFilter" : 9728,
            "minFilter" : 9984
        }
    ],
    "buffers" : [
        {
            "byteLength" : 93012,
            "uri" : "data:application/octet-stream;base64,"
        }
    ]
}
