{
  "accessors": [
    {
      "bufferView": 2,
      "componentType": 5126,
      "count": 592,
      "max": [
        0.3799167573451996,
        1.6346970796585083,
        0.8380046486854553
      ],
      "min": [
        -0.3799167573451996,
        -3.3381690979003906,
        -0.5063236951828003
      ],
      "type": "VEC3"
    },
    {
      "bufferView": 2,
      "byteOffset": 7104,
      "componentType": 5126,
      "count": 592,
      "max": [
        1.0,
        1.0,
        1.0
      ],
      "min": [
        -1.0,
        -1.0,
        -1.0
      ],
      "type": "VEC3"
    },
    {
      "bufferView": 3,
      "componentType": 5126,
      "count": 592,
      "max": [
        1.0,
        1.0,
        1.0,
        1.0
      ],
      "min": [
        -1.0,
        -1.0,
        -1.0,
        -1.0
      ],
      "type": "VEC4"
    },
    {
      "bufferView": 1,
      "componentType": 5126,
      "count": 592,
      "max": [
        0.99609375,
        0.9781324863433838
      ],
      "min": [
        0.00390625,
        0.00390625
      ],
      "type": "VEC2"
    },
    {
      "bufferView": 0,
      "componentType": 5125,
      "count": 1641,
      "type": "SCALAR"
    },
    {
      "bufferView": 2,
      "byteOffset": 14208,
      "componentType": 5126,
      "count": 272,
      "max": [
        0.08125109225511551,
        0.580640435218811,
        0.4559975266456604
      ],
      "min": [
        -0.08125101774930954,
        -0.4593989849090576,
        -1.410243272781372
      ],
      "type": "VEC3"
    },
    {
      "bufferView": 2,
      "byteOffset": 17472,
      "componentType": 5126,
      "count": 272,
      "max": [
        1.0,
        1.0,
        1.0
      ],
      "min": [
        -1.0,
        -1.0,
        -1.0
      ],
      "type": "VEC3"
    },
    {
      "bufferView": 3,
      "byteOffset": 9472,
      "componentType": 5126,
      "count": 272,
      "max": [
        1.0,
        0.9995294213294983,
        0.9999991655349731,
        1.0
      ],
      "min": [
        -0.9999997615814209,
        -0.9991413950920105,
        -0.9990372061729431,
        1.0
      ],
      "type": "VEC4"
    },
    {
      "bufferView": 1,
      "byteOffset": 4736,
      "componentType": 5126,
      "count": 272,
      "max": [
        0.9028795957565308,
        0.9850150346755981
      ],
      "min": [
        0.00390625,
        0.36106473207473755
      ],
      "type": "VEC2"
    },
    {
      "bufferView": 0,
      "byteOffset": 6564,
      "componentType": 5125,
      "count": 1062,
      "type": "SCALAR"
    },
    {
      "bufferView": 2,
      "byteOffset": 20736,
      "componentType": 5126,
      "count": 379,
      "max": [
        0.14972998201847076,
        0.5413272976875305,
        0.08635568618774414
      ],
      "min": [
        -0.14972998201847076,
        -0.08654136210680008,
        -0.41971588134765625
      ],
      "type": "VEC3"
    },
    {
      "bufferView": 2,
      "byteOffset": 25284,
      "componentType": 5126,
      "count": 379,
      "max": [
        1.0,
        0.9990487694740295,
        0.9997208118438721
      ],
      "min": [
        -1.0,
        -0.9997707009315491,
        -0.9990485310554504
      ],
      "type": "VEC3"
    },
    {
      "bufferView": 3,
      "byteOffset": 13824,
      "componentType": 5126,
      "count": 379,
      "max": [
        1.0,
        0.9991642832756042,
        0.997617244720459,
        1.0
      ],
      "min": [
        -1.0,
        -0.9991868138313293,
        -0.9976030588150024,
        1.0
      ],
      "type": "VEC4"
    },
    {
      "bufferView": 1,
      "byteOffset": 6912,
      "componentType": 5126,
      "count": 379,
      "max": [
        0.652131199836731,
        0.9751379489898682
      ],
      "min": [
        0.00390625,
        0.00390625
      ],
      "type": "VEC2"
    },
    {
      "bufferView": 0,
      "byteOffset": 10812,
      "componentType": 5125,
      "count": 1158,
      "type": "SCALAR"
    },
    {
      "bufferView": 2,
      "byteOffset": 29832,
      "componentType": 5126,
      "count": 1074,
      "max": [
        0.4797610640525818,
        0.7720773220062256,
        9.817134857177734
      ],
      "min": [
        -0.4797610640525818,
        -2.0918068885803223,
        -0.3085308074951172
      ],
      "type": "VEC3"
    },
    {
      "bufferView": 2,
      "byteOffset": 42720,
      "componentType": 5126,
      "count": 1074,
      "max": [
        1.0,
        1.0,
        1.0
      ],
      "min": [
        -1.0,
        -1.0,
        -1.0
      ],
      "type": "VEC3"
    },
    {
      "bufferView": 3,
      "byteOffset": 19888,
      "componentType": 5126,
      "count": 1074,
      "max": [
        1.0,
        1.0,
        1.0,
        1.0
      ],
      "min": [
        -1.0,
        -1.0,
        -1.0,
        1.0
      ],
      "type": "VEC4"
    },
    {
      "bufferView": 1,
      "byteOffset": 9944,
      "componentType": 5126,
      "count": 1074,
      "max": [
        0.99609375,
        0.9854239821434021
      ],
      "min": [
        0.00390625,
        0.00390625
      ],
      "type": "VEC2"
    },
    {
      "bufferView": 0,
      "byteOffset": 15444,
      "componentType": 5125,
      "count": 3408,
      "type": "SCALAR"
    },
    {
      "bufferView": 2,
      "byteOffset": 55608,
      "componentType": 5126,
      "count": 321,
      "max": [
        0.5983660221099854,
        0.49532580375671387,
        0.2695918083190918
      ],
      "min": [
        -0.5983660817146301,
        -0.21615386009216309,
        -0.21303033828735352
      ],
      "type": "VEC3"
    },
    {
      "bufferView": 2,
      "byteOffset": 59460,
      "componentType": 5126,
      "count": 321,
      "max": [
        1.0,
        0.9978277683258057,
        0.9978296160697937
      ],
      "min": [
        -1.0,
        -0.9981350898742676,
        -0.9978295564651489
      ],
      "type": "VEC3"
    },
    {
      "bufferView": 3,
      "byteOffset": 37072,
      "componentType": 5126,
      "count": 321,
      "max": [
        1.0,
        0.9808619618415833,
        0.9981350898742676,
        1.0
      ],
      "min": [
        -0.4039112329483032,
        -0.9681469202041626,
        -0.9681467413902283,
        -1.0
      ],
      "type": "VEC4"
    },
    {
      "bufferView": 1,
      "byteOffset": 18536,
      "componentType": 5126,
      "count": 321,
      "max": [
        0.9904769659042358,
        0.9686939716339111
      ],
      "min": [
        0.12203014642000198,
        0.00390625
      ],
      "type": "VEC2"
    },
    {
      "bufferView": 0,
      "byteOffset": 29076,
      "componentType": 5125,
      "count": 888,
      "type": "SCALAR"
    },
    {
      "bufferView": 2,
      "byteOffset": 63312,
      "componentType": 5126,
      "count": 5546,
      "max": [
        1.250268578529358,
        3.796774387359619,
        5.759484767913818
      ],
      "min": [
        -0.6598697900772095,
        -2.5312209129333496,
        -6.095449924468994
      ],
      "type": "VEC3"
    },
    {
      "bufferView": 2,
      "byteOffset": 129864,
      "componentType": 5126,
      "count": 5546,
      "max": [
        1.0,
        1.0,
        1.0
      ],
      "min": [
        -1.0,
        -1.0,
        -1.0
      ],
      "type": "VEC3"
    },
    {
      "bufferView": 3,
      "byteOffset": 42208,
      "componentType": 5126,
      "count": 5546,
      "max": [
        1.0,
        1.0,
        1.0,
        1.0
      ],
      "min": [
        -1.0,
        -1.0,
        -1.0,
        -1.0
      ],
      "type": "VEC4"
    },
    {
      "bufferView": 1,
      "byteOffset": 21104,
      "componentType": 5126,
      "count": 5546,
      "max": [
        0.997944712638855,
        0.9985432028770447
      ],
      "min": [
        0.00390625,
        0.00390625
      ],
      "type": "VEC2"
    },
    {
      "bufferView": 0,
      "byteOffset": 32628,
      "componentType": 5125,
      "count": 18288,
      "type": "SCALAR"
    },
    {
      "bufferView": 4,
      "componentType": 5126,
      "count": 35,
      "max": [
        2.0999999046325684
      ],
      "min": [
        0.0
      ],
      "type": "SCALAR"
    },
    {
      "bufferView": 6,
      "componentType": 5126,
      "count": 35,
      "max": [
        0.0,
        0.0,
        0.0,
        1.0
      ],
      "min": [
        -0.40274667739868164,
        0.0,
        0.0,
        0.9153114557266235
      ],
      "type": "VEC4"
    },
    {
      "bufferView": 4,
      "byteOffset": 140,
      "componentType": 5126,
      "count": 15,
      "max": [
        2.0999999046325684
      ],
      "min": [
        0.0
      ],
      "type": "SCALAR"
    },
    {
      "bufferView": 6,
      "byteOffset": 560,
      "componentType": 5126,
      "count": 15,
      "max": [
        0.7372773289680481,
        0.0,
        0.0,
        1.0
      ],
      "min": [
        0.0,
        0.0,
        0.0,
        0.6755902171134949
      ],
      "type": "VEC4"
    },
    {
      "bufferView": 4,
      "byteOffset": 200,
      "componentType": 5126,
      "count": 49,
      "max": [
        2.0999999046325684
      ],
      "min": [
        0.0
      ],
      "type": "SCALAR"
    },
    {
      "bufferView": 6,
      "byteOffset": 800,
      "componentType": 5126,
      "count": 49,
      "max": [
        0.9999445676803589,
        0.0,
        0.0,
        1.0
      ],
      "min": [
        -0.8495920896530151,
        0.0,
        0.0,
        -0.4800366759300232
      ],
      "type": "VEC4"
    },
    {
      "bufferView": 4,
      "byteOffset": 396,
      "componentType": 5126,
      "count": 10,
      "max": [
        2.0999999046325684
      ],
      "min": [
        0.0
      ],
      "type": "SCALAR"
    },
    {
      "bufferView": 5,
      "componentType": 5126,
      "count": 10,
      "max": [
        0.05278967320919037,
        2.9376628398895264,
        -5.657636642456055
      ],
      "min": [
        -0.06802619248628616,
        2.9376628398895264,
        -5.657636642456055
      ],
      "type": "VEC3"
    },
    {
      "bufferView": 4,
      "byteOffset": 436,
      "componentType": 5126,
      "count": 50,
      "max": [
        2.0999999046325684
      ],
      "min": [
        0.0
      ],
      "type": "SCALAR"
    },
    {
      "bufferView": 6,
      "byteOffset": 1584,
      "componentType": 5126,
      "count": 50,
      "max": [
        0.9999445676803589,
        0.0,
        0.0,
        1.0
      ],
      "min": [
        -0.8495920896530151,
        0.0,
        0.0,
        -0.4800366759300232
      ],
      "type": "VEC4"
    }
  ],
  "animations": [
    {
      "channels": [
        {
          "sampler": 0,
          "target": {
            "node": 7,
            "path": "rotation"
          }
        },
        {
          "sampler": 1,
          "target": {
            "node": 9,
            "path": "rotation"
          }
        },
        {
          "sampler": 2,
          "target": {
            "node": 11,
            "path": "rotation"
          }
        },
        {
          "sampler": 3,
          "target": {
            "node": 13,
            "path": "translation"
          }
        },
        {
          "sampler": 4,
          "target": {
            "node": 13,
            "path": "rotation"
          }
        }
      ],
      "name": "Take 001",
      "samplers": [
        {
          "input": 30,
          "interpolation": "LINEAR",
          "output": 31
        },
        {
          "input": 32,
          "interpolation": "LINEAR",
          "output": 33
        },
        {
          "input": 34,
          "interpolation": "LINEAR",
          "output": 35
        },
        {
          "input": 36,
          "interpolation": "LINEAR",
          "output": 37
        },
        {
          "input": 38,
          "interpolation": "LINEAR",
          "output": 39
        }
      ]
    }
  ],
  "asset": {
    "extras": {
      "author": "LuddePudde (https://sketchfab.com/ludde5000)",
      "license": "CC-BY-4.0 (http://creativecommons.org/licenses/by/4.0/)",
      "source": "https://sketchfab.com/3d-models/pp-91-kedr-974f6d83001044d68e5806775fe362fb",
      "title": "PP-91 KEDR"
    },
    "generator": "Sketchfab-10.59.0",
    "version": "2.0"
  },
  "bufferViews": [
    {
      "buffer": 0,
      "byteLength": 105780,
      "name": "floatBufferViews",
      "target": 34963
    },
    {
      "buffer": 0,
      "byteLength": 65472,
      "byteOffset": 105780,
      "byteStride": 8,
      "name": "floatBufferViews",
      "target": 34962
    },
    {
      "buffer": 0,
      "byteLength": 196416,
      "byteOffset": 171252,
      "byteStride": 12,
      "name": "floatBufferViews",
      "target": 34962
    },
    {
      "buffer": 0,
      "byteLength": 130944,
      "byteOffset": 367668,
      "byteStride": 16,
      "name": "floatBufferViews",
      "target": 34962
    },
    {
      "buffer": 0,
      "byteLength": 636,
      "byteOffset": 498612,
      "name": "floatBufferViews"
    },
    {
      "buffer": 0,
      "byteLength": 120,
      "byteOffset": 499248,
      "byteStride": 12,
      "name": "floatBufferViews"
    },
    {
      "buffer": 0,
      "byteLength": 2384,
      "byteOffset": 499368,
      "byteStride": 16,
      "name": "floatBufferViews"
    }
  ],
  "buffers": [
    {
      "byteLength": 501752,
      "uri": "scene.bin"
    }
  ],
  "images": [
    {
      "uri": "textures/Magasin_Mat_baseColor.png"
    },
    {
      "uri": "textures/Magasin_Mat_metallicRoughness.png"
    },
    {
      "uri": "textures/Magasin_Mat_normal.png"
    },
    {
      "uri": "textures/PP91_Mat_baseColor.png"
    },
    {
      "uri": "textures/PP91_Mat_metallicRoughness.png"
    },
    {
      "uri": "textures/PP91_Mat_normal.png"
    }
  ],
  "materials": [
    {
      "doubleSided": true,
      "name": "Magasin_Mat",
      "normalTexture": {
        "index": 2
      },
      "occlusionTexture": {
        "index": 1
      },
      "pbrMetallicRoughness": {
        "baseColorTexture": {
          "index": 0
        },
        "metallicRoughnessTexture": {
          "index": 1
        }
      }
    },
    {
      "doubleSided": true,
      "name": "PP91_Mat",
      "normalTexture": {
        "index": 5
      },
      "occlusionTexture": {
        "index": 4
      },
      "pbrMetallicRoughness": {
        "baseColorTexture": {
          "index": 3
        },
        "metallicRoughnessTexture": {
          "index": 4
        }
      }
    }
  ],
  "meshes": [
    {
      "name": "Magasin_Magasin_Mat_0",
      "primitives": [
        {
          "attributes": {
            "NORMAL": 1,
            "POSITION": 0,
            "TANGENT": 2,
            "TEXCOORD_0": 3
          },
          "indices": 4,
          "material": 0,
          "mode": 4
        }
      ]
    },
    {
      "name": "Firemode_PP91_Mat_0",
      "primitives": [
        {
          "attributes": {
            "NORMAL": 6,
            "POSITION": 5,
            "TANGENT": 7,
            "TEXCOORD_0": 8
          },
          "indices": 9,
          "material": 1,
          "mode": 4
        }
      ]
    },
    {
      "name": "RearSight_PP91_Mat_0",
      "primitives": [
        {
          "attributes": {
            "NORMAL": 11,
            "POSITION": 10,
            "TANGENT": 12,
            "TEXCOORD_0": 13
          },
          "indices": 14,
          "material": 1,
          "mode": 4
        }
      ]
    },
    {
      "name": "Stock_PP91_Mat_0",
      "primitives": [
        {
          "attributes": {
            "NORMAL": 16,
            "POSITION": 15,
            "TANGENT": 17,
            "TEXCOORD_0": 18
          },
          "indices": 19,
          "material": 1,
          "mode": 4
        }
      ]
    },
    {
      "name": "Stocklock_PP91_Mat_0",
      "primitives": [
        {
          "attributes": {
            "NORMAL": 21,
            "POSITION": 20,
            "TANGENT": 22,
            "TEXCOORD_0": 23
          },
          "indices": 24,
          "material": 1,
          "mode": 4
        }
      ]
    },
    {
      "name": "PP91_PP91_Mat_0",
      "primitives": [
        {
          "attributes": {
            "NORMAL": 26,
            "POSITION": 25,
            "TANGENT": 27,
            "TEXCOORD_0": 28
          },
          "indices": 29,
          "material": 1,
          "mode": 4
        }
      ]
    }
  ],
  "nodes": [
    {
      "children": [
        1
      ],
      "matrix": [
        0.2844499349594116,
        0.0,
        0.0,
        0.0,
        0.0,
        6.31605734290134e-17,
        -0.2844499349594116,
        0.0,
        0.0,
        0.2844499349594116,
        6.31605734290134e-17,
        0.0,
        0.0,
        0.0,
        0.0,
        1.0
      ],
      "name": "Sketchfab_model"
    },
    {
      "children": [
        2
      ],
      "matrix": [
        1.0,
        0.0,
        0.0,
        0.0,
        0.0,
        0.0,
        1.0,
        0.0,
        0.0,
        -1.0,
        0.0,
        0.0,
        0.0,
        0.0,
        0.0,
        1.0
      ],
      "name": "PP-91_anim.fbx"
    },
    {
      "children": [
        3
      ],
      "name": "Object_2"
    },
    {
      "children": [
        4
      ],
      "name": "RootNode"
    },
    {
      "children": [
        5,
        7,
        9,
        11,
        13,
        15
      ],
      "name": "LP1"
    },
    {
      "children": [
        6
      ],
      "name": "Magasin"
    },
    {
      "mesh": 0,
      "name": "Magasin_Magasin_Mat_0"
    },
    {
      "children": [
        8
      ],
      "name": "Firemode",
      "rotation": [
        -0.40274667739868164,
        -0.0,
        0.0,
        0.9153114557266235
      ],
      "translation": [
        -0.6453474164009094,
        1.7118810415267944,
        -0.9694867134094238
      ]
    },
    {
      "mesh": 1,
      "name": "Firemode_PP91_Mat_0"
    },
    {
      "children": [
        10
      ],
      "name": "RearSight",
      "rotation": [
        0.7372773289680481,
        0.0,
        0.0,
        0.6755902171134949
      ],
      "translation": [
        0.0,
        3.4211792945861816,
        -5.586062908172607
      ]
    },
    {
      "mesh": 2,
      "name": "RearSight_PP91_Mat_0"
    },
    {
      "children": [
        12
      ],
      "name": "Stock",
      "rotation": [
        0.9848078489303589,
        0.0,
        0.0,
        0.1736481934785843
      ],
      "translation": [
        0.0,
        2.940281391143799,
        -5.657703876495361
      ]
    },
    {
      "mesh": 3,
      "name": "Stock_PP91_Mat_0"
    },
    {
      "children": [
        14
      ],
      "name": "Stocklock",
      "rotation": [
        0.9848078489303589,
        0.0,
        0.0,
        0.1736481934785843
      ],
      "translation": [
        0.05278966948390007,
        2.9376628398895264,
        -5.657636642456055
      ]
    },
    {
      "mesh": 4,
      "name": "Stocklock_PP91_Mat_0"
    },
    {
      "children": [
        16
      ],
      "name": "PP91"
    },
    {
      "mesh": 5,
      "name": "PP91_PP91_Mat_0"
    }
  ],
  "samplers": [
    {
      "magFilter": 9729,
      "minFilter": 9987,
      "wrapS": 10497,
      "wrapT": 10497
    }
  ],
  "scene": 0,
  "scenes": [
    {
      "name": "Sketchfab_Scene",
      "nodes": [
        0
      ]
    }
  ],
  "textures": [
    {
      "sampler": 0,
      "source": 0
    },
    {
      "sampler": 0,
      "source": 1
    },
    {
      "sampler": 0,
      "source": 2
    },
    {
      "sampler": 0,
      "source": 3
    },
    {
      "sampler": 0,
      "source": 4
    },
    {
      "sampler": 0,
      "source": 5
    }
  ]
}
